<svg width="24" height="24" viewBox="0 0 24 24" fill="none" xmlns="http://www.w3.org/2000/svg">
<path fill-rule="evenodd" clip-rule="evenodd" d="M7 1.75C7.41421 1.75 7.75 2.08579 7.75 2.5V4.0129C8.41527 4 9.16097 4 10 4H14C14.839 4 15.5847 4 16.25 4.0129V2.5C16.25 2.08579 16.5858 1.75 17 1.75C17.4142 1.75 17.75 2.08579 17.75 2.5V4.07926C19.1893 4.19451 20.1342 4.47737 20.8284 5.17157C21.5226 5.86577 21.8055 6.81067 21.9207 8.25H2.07926C2.19451 6.81067 2.47737 5.86577 3.17157 5.17157C3.86577 4.47737 4.81067 4.19451 6.25 4.07926V2.5C6.25 2.08579 6.58579 1.75 7 1.75ZM22 14C22 17.7712 22 19.6569 20.8284 20.8284C19.6569 22 17.7712 22 14 22H10C6.22876 22 4.34315 22 3.17157 20.8284C2 19.6569 2 17.7712 2 14V12C2 11.161 2 10.4153 2.0129 9.75H21.9871C22 10.4153 22 11.161 22 12V14ZM12.75 12C12.75 11.5858 12.4142 11.25 12 11.25C11.5858 11.25 11.25 11.5858 11.25 12V18C11.25 18.4142 11.5858 18.75 12 18.75C12.4142 18.75 12.75 18.4142 12.75 18V12ZM8 12.25C8.41421 12.25 8.75 12.5858 8.75 13L8.75 18C8.75 18.4142 8.41421 18.75 8 18.75C7.58579 18.75 7.25 18.4142 7.25 18L7.25 13C7.25 12.5858 7.58579 12.25 8 12.25ZM16.75 16C16.75 15.5858 16.4142 15.25 16 15.25C15.5858 15.25 15.25 15.5858 15.25 16V18C15.25 18.4142 15.5858 18.75 16 18.75C16.4142 18.75 16.75 18.4142 16.75 18V16Z" fill="#252736"/>
<path fill-rule="evenodd" clip-rule="evenodd" d="M7 1.75C7.41421 1.75 7.75 2.08579 7.75 2.5V4.0129C8.41527 4 9.16097 4 10 4H14C14.839 4 15.5847 4 16.25 4.0129V2.5C16.25 2.08579 16.5858 1.75 17 1.75C17.4142 1.75 17.75 2.08579 17.75 2.5V4.07926C19.1893 4.19451 20.1342 4.47737 20.8284 5.17157C21.5226 5.86577 21.8055 6.81067 21.9207 8.25H2.07926C2.19451 6.81067 2.47737 5.86577 3.17157 5.17157C3.86577 4.47737 4.81067 4.19451 6.25 4.07926V2.5C6.25 2.08579 6.58579 1.75 7 1.75ZM22 14C22 17.7712 22 19.6569 20.8284 20.8284C19.6569 22 17.7712 22 14 22H10C6.22876 22 4.34315 22 3.17157 20.8284C2 19.6569 2 17.7712 2 14V12C2 11.161 2 10.4153 2.0129 9.75H21.9871C22 10.4153 22 11.161 22 12V14ZM12.75 12C12.75 11.5858 12.4142 11.25 12 11.25C11.5858 11.25 11.25 11.5858 11.25 12V18C11.25 18.4142 11.5858 18.75 12 18.75C12.4142 18.75 12.75 18.4142 12.75 18V12ZM8 12.25C8.41421 12.25 8.75 12.5858 8.75 13L8.75 18C8.75 18.4142 8.41421 18.75 8 18.75C7.58579 18.75 7.25 18.4142 7.25 18L7.25 13C7.25 12.5858 7.58579 12.25 8 12.25ZM16.75 16C16.75 15.5858 16.4142 15.25 16 15.25C15.5858 15.25 15.25 15.5858 15.25 16V18C15.25 18.4142 15.5858 18.75 16 18.75C16.4142 18.75 16.75 18.4142 16.75 18V16Z" fill="black" fill-opacity="0.2"/>
<path fill-rule="evenodd" clip-rule="evenodd" d="M7 1.75C7.41421 1.75 7.75 2.08579 7.75 2.5V4.0129C8.41527 4 9.16097 4 10 4H14C14.839 4 15.5847 4 16.25 4.0129V2.5C16.25 2.08579 16.5858 1.75 17 1.75C17.4142 1.75 17.75 2.08579 17.75 2.5V4.07926C19.1893 4.19451 20.1342 4.47737 20.8284 5.17157C21.5226 5.86577 21.8055 6.81067 21.9207 8.25H2.07926C2.19451 6.81067 2.47737 5.86577 3.17157 5.17157C3.86577 4.47737 4.81067 4.19451 6.25 4.07926V2.5C6.25 2.08579 6.58579 1.75 7 1.75ZM22 14C22 17.7712 22 19.6569 20.8284 20.8284C19.6569 22 17.7712 22 14 22H10C6.22876 22 4.34315 22 3.17157 20.8284C2 19.6569 2 17.7712 2 14V12C2 11.161 2 10.4153 2.0129 9.75H21.9871C22 10.4153 22 11.161 22 12V14ZM12.75 12C12.75 11.5858 12.4142 11.25 12 11.25C11.5858 11.25 11.25 11.5858 11.25 12V18C11.25 18.4142 11.5858 18.75 12 18.75C12.4142 18.75 12.75 18.4142 12.75 18V12ZM8 12.25C8.41421 12.25 8.75 12.5858 8.75 13L8.75 18C8.75 18.4142 8.41421 18.75 8 18.75C7.58579 18.75 7.25 18.4142 7.25 18L7.25 13C7.25 12.5858 7.58579 12.25 8 12.25ZM16.75 16C16.75 15.5858 16.4142 15.25 16 15.25C15.5858 15.25 15.25 15.5858 15.25 16V18C15.25 18.4142 15.5858 18.75 16 18.75C16.4142 18.75 16.75 18.4142 16.75 18V16Z" fill="black" fill-opacity="0.2"/>
</svg>
