<svg width="24" height="24" viewBox="0 0 24 24" fill="none" xmlns="http://www.w3.org/2000/svg">
<path fill-rule="evenodd" clip-rule="evenodd" d="M10 2C9.58579 2 9.25 2.33579 9.25 2.75C9.25 3.16421 9.58579 3.5 10 3.5H14C14.4142 3.5 14.75 3.16421 14.75 2.75C14.75 2.33579 14.4142 2 14 2H10ZM12 22.75C16.9706 22.75 21 18.7206 21 13.75C21 8.77944 16.9706 4.75 12 4.75C7.02944 4.75 3 8.77944 3 13.75C3 18.7206 7.02944 22.75 12 22.75ZM9.18828 17.5014C9.32218 17.6635 9.48954 17.7689 9.69038 17.8176C10.2176 17.9392 10.7615 18 11.3222 18C13.7741 18 15 16.9581 15 14.8743C15 13.9986 14.749 13.3216 14.2469 12.8432C13.7531 12.3649 13.0544 12.1257 12.1506 12.1257C11.6653 12.1257 11.2134 12.223 10.795 12.4176L10.7824 12.4297H10.7699C10.7615 12.4297 10.7573 12.4257 10.7573 12.4176L10.8577 10.4838C10.8577 10.4108 10.8954 10.3743 10.9707 10.3743H13.8954C14.0879 10.3743 14.251 10.3095 14.3849 10.1797C14.5272 10.0419 14.5983 9.87973 14.5983 9.69324C14.5983 9.50676 14.5272 9.34459 14.3849 9.20676C14.251 9.06892 14.0879 9 13.8954 9H9.97908C9.77824 9 9.60669 9.06892 9.46444 9.20676C9.33054 9.33649 9.25523 9.49865 9.23849 9.69324L9.05021 13.2324C9.04184 13.4189 9.1046 13.5811 9.23849 13.7189C9.37239 13.8568 9.53556 13.9257 9.72803 13.9257H9.8159C10.0669 13.9257 10.4979 13.8041 11.1088 13.5608C11.3347 13.4716 11.5732 13.427 11.8243 13.427C12.7866 13.427 13.2678 13.9095 13.2678 14.8743C13.2678 16.0419 12.6025 16.6257 11.272 16.6257C10.8201 16.6257 10.2803 16.5324 9.65272 16.3459C9.49372 16.2973 9.3431 16.3216 9.20084 16.4189C9.06695 16.5162 9 16.6459 9 16.8081V16.9297C9 17.1405 9.06276 17.3311 9.18828 17.5014Z" fill="#252736"/>
<path fill-rule="evenodd" clip-rule="evenodd" d="M10 2C9.58579 2 9.25 2.33579 9.25 2.75C9.25 3.16421 9.58579 3.5 10 3.5H14C14.4142 3.5 14.75 3.16421 14.75 2.75C14.75 2.33579 14.4142 2 14 2H10ZM12 22.75C16.9706 22.75 21 18.7206 21 13.75C21 8.77944 16.9706 4.75 12 4.75C7.02944 4.75 3 8.77944 3 13.75C3 18.7206 7.02944 22.75 12 22.75ZM9.18828 17.5014C9.32218 17.6635 9.48954 17.7689 9.69038 17.8176C10.2176 17.9392 10.7615 18 11.3222 18C13.7741 18 15 16.9581 15 14.8743C15 13.9986 14.749 13.3216 14.2469 12.8432C13.7531 12.3649 13.0544 12.1257 12.1506 12.1257C11.6653 12.1257 11.2134 12.223 10.795 12.4176L10.7824 12.4297H10.7699C10.7615 12.4297 10.7573 12.4257 10.7573 12.4176L10.8577 10.4838C10.8577 10.4108 10.8954 10.3743 10.9707 10.3743H13.8954C14.0879 10.3743 14.251 10.3095 14.3849 10.1797C14.5272 10.0419 14.5983 9.87973 14.5983 9.69324C14.5983 9.50676 14.5272 9.34459 14.3849 9.20676C14.251 9.06892 14.0879 9 13.8954 9H9.97908C9.77824 9 9.60669 9.06892 9.46444 9.20676C9.33054 9.33649 9.25523 9.49865 9.23849 9.69324L9.05021 13.2324C9.04184 13.4189 9.1046 13.5811 9.23849 13.7189C9.37239 13.8568 9.53556 13.9257 9.72803 13.9257H9.8159C10.0669 13.9257 10.4979 13.8041 11.1088 13.5608C11.3347 13.4716 11.5732 13.427 11.8243 13.427C12.7866 13.427 13.2678 13.9095 13.2678 14.8743C13.2678 16.0419 12.6025 16.6257 11.272 16.6257C10.8201 16.6257 10.2803 16.5324 9.65272 16.3459C9.49372 16.2973 9.3431 16.3216 9.20084 16.4189C9.06695 16.5162 9 16.6459 9 16.8081V16.9297C9 17.1405 9.06276 17.3311 9.18828 17.5014Z" fill="black" fill-opacity="0.2"/>
<path fill-rule="evenodd" clip-rule="evenodd" d="M10 2C9.58579 2 9.25 2.33579 9.25 2.75C9.25 3.16421 9.58579 3.5 10 3.5H14C14.4142 3.5 14.75 3.16421 14.75 2.75C14.75 2.33579 14.4142 2 14 2H10ZM12 22.75C16.9706 22.75 21 18.7206 21 13.75C21 8.77944 16.9706 4.75 12 4.75C7.02944 4.75 3 8.77944 3 13.75C3 18.7206 7.02944 22.75 12 22.75ZM9.18828 17.5014C9.32218 17.6635 9.48954 17.7689 9.69038 17.8176C10.2176 17.9392 10.7615 18 11.3222 18C13.7741 18 15 16.9581 15 14.8743C15 13.9986 14.749 13.3216 14.2469 12.8432C13.7531 12.3649 13.0544 12.1257 12.1506 12.1257C11.6653 12.1257 11.2134 12.223 10.795 12.4176L10.7824 12.4297H10.7699C10.7615 12.4297 10.7573 12.4257 10.7573 12.4176L10.8577 10.4838C10.8577 10.4108 10.8954 10.3743 10.9707 10.3743H13.8954C14.0879 10.3743 14.251 10.3095 14.3849 10.1797C14.5272 10.0419 14.5983 9.87973 14.5983 9.69324C14.5983 9.50676 14.5272 9.34459 14.3849 9.20676C14.251 9.06892 14.0879 9 13.8954 9H9.97908C9.77824 9 9.60669 9.06892 9.46444 9.20676C9.33054 9.33649 9.25523 9.49865 9.23849 9.69324L9.05021 13.2324C9.04184 13.4189 9.1046 13.5811 9.23849 13.7189C9.37239 13.8568 9.53556 13.9257 9.72803 13.9257H9.8159C10.0669 13.9257 10.4979 13.8041 11.1088 13.5608C11.3347 13.4716 11.5732 13.427 11.8243 13.427C12.7866 13.427 13.2678 13.9095 13.2678 14.8743C13.2678 16.0419 12.6025 16.6257 11.272 16.6257C10.8201 16.6257 10.2803 16.5324 9.65272 16.3459C9.49372 16.2973 9.3431 16.3216 9.20084 16.4189C9.06695 16.5162 9 16.6459 9 16.8081V16.9297C9 17.1405 9.06276 17.3311 9.18828 17.5014Z" fill="black" fill-opacity="0.2"/>
</svg>
