<svg width="42" height="20" viewBox="0 0 42 20" fill="none" xmlns="http://www.w3.org/2000/svg">
<path fill-rule="evenodd" clip-rule="evenodd" d="M6.15253 1.63667H32.3008C34.8025 1.63667 36.8305 3.6624 36.8305 6.16127V13.8433C36.8305 16.3422 34.8025 18.3679 32.3008 18.3679H6.15253C3.65087 18.3679 1.62286 16.3422 1.62286 13.8433V6.16127C1.62286 3.6624 3.65087 1.63667 6.15253 1.63667ZM0 6.16127C0 2.76712 2.75458 0.015625 6.15253 0.015625H32.3008C35.6987 0.015625 38.4533 2.76712 38.4533 6.16127V13.8433C38.4533 17.2375 35.6987 19.989 32.3008 19.989H6.15253C2.75458 19.989 0 17.2375 0 13.8433V6.16127ZM41.9986 11.1182C41.9986 12.5443 41.1895 13.8316 39.9453 14.3849V7.85156C41.1895 8.4049 41.9986 9.69211 41.9986 11.1182Z" fill="#999CAF"/>
<mask id="mask0_1443_6191" style="mask-type:alpha" maskUnits="userSpaceOnUse" x="2" y="3" width="34" height="14">
<path d="M2.98438 6.11111C2.98438 4.39289 4.36931 3 6.07771 3H32.371C34.0794 3 35.4644 4.39289 35.4644 6.11111V13.8889C35.4644 15.6071 34.0794 17 32.371 17H6.07771C4.36931 17 2.98438 15.6071 2.98438 13.8889V6.11111Z" fill="white"/>
</mask>
<g mask="url(#mask0_1443_6191)">
<rect x="2.89844" y="2.91406" width="20.6996" height="14.1629" fill="#9CD900"/>
</g>
</svg>
