<svg width="24" height="24" viewBox="0 0 24 24" fill="none" xmlns="http://www.w3.org/2000/svg">
<path fill-rule="evenodd" clip-rule="evenodd" d="M9 2C9 1.58579 9.33579 1.25 9.75 1.25H13.75C14.1642 1.25 14.5 1.58579 14.5 2C14.5 2.41421 14.1642 2.75 13.75 2.75H9.75C9.33579 2.75 9 2.41421 9 2ZM11.75 4.75C7.19365 4.75 3.5 8.44365 3.5 13C3.5 17.5564 7.19365 21.25 11.75 21.25C16.3063 21.25 20 17.5564 20 13C20 8.44365 16.3063 4.75 11.75 4.75ZM2 13C2 7.61522 6.36522 3.25 11.75 3.25C17.1348 3.25 21.5 7.61522 21.5 13C21.5 18.3848 17.1348 22.75 11.75 22.75C6.36522 22.75 2 18.3848 2 13ZM12.3227 9.09016C12.3423 9.10207 12.3619 9.11401 12.3816 9.12597C12.6688 9.30059 12.9522 9.48215 13.2071 9.66113C13.4973 9.86492 13.8067 10.1049 14.1117 10.3536C14.1271 10.3662 14.1425 10.3787 14.1578 10.3912C14.6556 10.7973 15.1032 11.1623 15.4159 11.5264C15.7704 11.9393 16 12.4034 16 13C16 13.5966 15.7704 14.0607 15.4159 14.4736C15.1032 14.8377 14.6557 15.2027 14.1578 15.6088L14.1117 15.6464C13.8067 15.8951 13.4973 16.1351 13.2071 16.3389C12.9522 16.5178 12.6688 16.6994 12.3816 16.874C12.3619 16.886 12.3423 16.8979 12.3227 16.9098C11.8379 17.2049 11.3798 17.4836 10.9789 17.6276C10.7561 17.7076 10.5005 17.7664 10.2254 17.7459C9.93644 17.7244 9.67767 17.6195 9.45216 17.4502C8.99308 17.1056 8.80869 16.6066 8.71253 16.1104C8.62092 15.6376 8.58573 15.0287 8.54462 14.3171L8.54163 14.2655C8.51641 13.8293 8.5 13.3949 8.5 13C8.5 12.6051 8.51641 12.1707 8.54163 11.7345L8.54462 11.6829C8.58573 10.9713 8.62092 10.3624 8.71253 9.88961C8.80869 9.39339 8.99308 8.89441 9.45216 8.54979C9.67767 8.3805 9.93644 8.27557 10.2254 8.25409C10.5005 8.23364 10.7561 8.29238 10.9789 8.37243C11.3798 8.51644 11.8379 8.79515 12.3227 9.09016ZM10.3504 9.75114C10.3258 9.76995 10.2507 9.83653 10.1851 10.175C10.115 10.5368 10.0841 11.0435 10.0391 11.8212C10.0149 12.2399 10 12.6436 10 13C10 13.3564 10.0149 13.7601 10.0391 14.1788C10.0841 14.9565 10.115 15.4632 10.1851 15.825C10.2507 16.1635 10.3258 16.2301 10.3504 16.2489C10.3692 16.2465 10.4075 16.239 10.4718 16.2159C10.7112 16.1299 11.0365 15.9364 11.6023 15.5924C11.8715 15.4287 12.1255 15.2655 12.3451 15.1113C12.5958 14.9353 12.875 14.7194 13.1635 14.484C13.7222 14.0283 14.0627 13.747 14.2779 13.4964C14.4608 13.2833 14.5 13.1532 14.5 13C14.5 12.8468 14.4608 12.7167 14.2779 12.5036C14.0627 12.253 13.7222 11.9717 13.1635 11.516C12.875 11.2806 12.5958 11.0647 12.3451 10.8887C12.1255 10.7345 11.8715 10.5713 11.6023 10.4076C11.0365 10.0636 10.7112 9.87009 10.4718 9.7841C10.4075 9.76101 10.3692 9.75355 10.3504 9.75114Z" fill="#7C7F91"/>
</svg>
